<svg width="49" height="50" viewBox="0 0 49 50" fill="none" xmlns="http://www.w3.org/2000/svg">
<path d="M43.2385 18.4794C44.761 12.7433 40.9106 6.42518 34.3364 4.13446C30.1461 2.6725 26.0721 3.13344 23.0691 5.12617C23.06 5.10658 23.0491 5.08788 23.0365 5.0703C22.5469 4.32749 21.82 3.77255 20.9744 3.49604C20.1288 3.21953 19.2144 3.23778 18.3806 3.54781C17.8785 2.6873 17.6269 1.7036 17.6542 0.707701C17.6556 0.525179 17.5859 0.349285 17.4599 0.217214C17.3339 0.0851429 17.1615 0.00724771 16.9791 0V0C16.7927 0 16.6138 0.0740706 16.482 0.205917C16.3502 0.337763 16.2761 0.516586 16.2761 0.703045C16.2411 1.96209 16.564 3.20522 17.2073 4.28811C16.7204 4.69711 16.3589 5.23532 16.1645 5.84076C15.9701 6.44619 15.9507 7.09422 16.1085 7.71021C15.147 7.51949 14.157 7.52383 13.1973 7.72297C12.2375 7.92212 11.3276 8.31202 10.5214 8.86954C7.63469 10.8297 6.54986 14.4101 7.77902 17.3107C6.1264 17.4059 4.54916 18.0342 3.28382 19.1015C2.01847 20.1687 1.13322 21.6175 0.760803 23.2304C0.38839 24.8433 0.54889 26.5335 1.21824 28.0475C1.88758 29.5615 3.0297 30.8177 4.47331 31.6277C4.41011 31.7747 4.39862 31.9389 4.44072 32.0933L9.73916 49.5018C9.78253 49.6468 9.87182 49.7737 9.99357 49.8636C10.1153 49.9534 10.263 50.0013 10.4143 50H38.9225C39.0748 49.9999 39.223 49.9504 39.3448 49.8589C39.4665 49.7674 39.5552 49.6388 39.5976 49.4925L44.6446 32.1259C44.6773 32.007 44.6773 31.8816 44.6446 31.7627C45.9038 31.0848 46.9329 30.0476 47.6009 28.7831C48.2689 27.5187 48.5456 26.084 48.3959 24.6618C48.2461 23.2396 47.6766 21.8941 46.7599 20.7965C45.8432 19.6988 44.6206 18.8987 43.2479 18.498L43.2385 18.4794ZM17.8498 8.17115C17.518 7.76617 17.3572 7.24781 17.4016 6.72618C17.4459 6.20455 17.6919 5.72076 18.0872 5.37759C18.2776 5.5738 18.4901 5.74724 18.7204 5.8944C18.8294 5.96213 18.9553 5.99764 19.0836 5.99683C19.2322 5.99856 19.3775 5.95283 19.4984 5.8663C19.6192 5.77976 19.7093 5.65693 19.7555 5.51568C19.8017 5.37442 19.8017 5.2221 19.7553 5.08087C19.709 4.93965 19.6189 4.81688 19.498 4.73042C19.9613 4.68452 20.4284 4.76556 20.8491 4.96487C21.2699 5.16418 21.6285 5.47424 21.8865 5.86181C21.9138 5.90057 21.945 5.93645 21.9796 5.9689C20.8893 6.92818 20.0095 8.10286 19.3956 9.41894C18.9621 9.00477 18.4713 8.6551 17.9382 8.38066C17.9215 8.30612 17.8915 8.23517 17.8498 8.17115ZM6.06564 32.6148H9.66001L14.721 48.6172H10.9357L6.06564 32.6148ZM16.1969 48.6172L11.1359 32.6148H31.2914L27.6784 48.6172H16.1969ZM43.029 32.6148L38.3731 48.6172H29.1404L32.7534 32.6148H43.029ZM46.954 26.306C46.7135 27.8268 45.8792 29.19 44.6343 30.0962C43.3894 31.0023 41.8358 31.3773 40.3146 31.1388C40.1665 31.1143 40.0145 31.1388 39.8816 31.2087H8.22133C7.38552 31.2315 6.55362 31.0865 5.77476 30.7824C4.9959 30.4783 4.28589 30.0212 3.68665 29.4381C3.08742 28.855 2.61112 28.1577 2.28589 27.3875C1.96066 26.6172 1.7931 25.7895 1.7931 24.9534C1.7931 24.1173 1.96066 23.2897 2.28589 22.5194C2.61112 21.7491 3.08742 21.0518 3.68665 20.4687C4.28589 19.8856 4.9959 19.4285 5.77476 19.1244C6.55362 18.8203 7.38552 18.6754 8.22133 18.6982C8.34997 18.6969 8.47571 18.6598 8.58449 18.5911C8.6971 18.6654 8.82905 18.705 8.96395 18.705C9.09886 18.705 9.2308 18.6654 9.34341 18.5911C9.41992 18.5392 9.48544 18.4727 9.53621 18.3955C9.58699 18.3182 9.62204 18.2317 9.63933 18.1409C9.65663 18.05 9.65585 17.9567 9.63703 17.8662C9.61821 17.7757 9.58172 17.6898 9.52965 17.6134C7.90007 15.2156 8.70089 11.8214 11.3175 10.0475C13.9342 8.27358 17.3702 8.77176 19.0091 11.1649L19.0603 11.2254C19.0731 11.2406 19.0871 11.2546 19.1022 11.2673C19.1187 11.2853 19.1375 11.301 19.1581 11.3139L19.2093 11.3511L19.2698 11.3837L19.335 11.4163H19.3862H19.4561H19.6516H19.7308H19.7867L19.8565 11.393L19.917 11.3605C19.9335 11.3529 19.9491 11.3435 19.9636 11.3325C20.0145 11.2861 20.0145 11.2861 20.0656 11.2396L20.1079 11.1882L20.1498 11.1323L20.1777 11.0764C20.1905 11.0541 20.2014 11.0307 20.2103 11.0066C22.0727 5.69885 27.7855 3.37555 33.8243 5.48002C39.863 7.5845 43.3037 13.3346 41.7393 18.4421C41.6051 18.5513 41.5143 18.7049 41.4833 18.8751C41.4551 19.0596 41.5009 19.2478 41.6108 19.3986C41.7207 19.5495 41.8857 19.6508 42.0699 19.6806C42.8267 19.7926 43.5539 20.0531 44.2096 20.4472C44.8652 20.8414 45.4365 21.3613 45.8904 21.9771C46.3444 22.5929 46.6721 23.2924 46.8546 24.0353C47.0371 24.7782 47.0709 25.5499 46.954 26.306Z" fill="white"/>
<path d="M7.37391 24.4483C7.23941 24.3214 7.06034 24.2526 6.87549 24.2568C6.69064 24.2611 6.51489 24.3379 6.38631 24.4708C6.25773 24.6037 6.18667 24.7818 6.18851 24.9667C6.19036 25.1516 6.26496 25.3283 6.39617 25.4586L8.36097 27.3722C8.42629 27.4378 8.50393 27.4898 8.58942 27.5254C8.67491 27.5609 8.76658 27.5792 8.85915 27.5792C8.95173 27.5792 9.0434 27.5609 9.12889 27.5254C9.21438 27.4898 9.29202 27.4378 9.35734 27.3722C9.48869 27.2396 9.56239 27.0606 9.56239 26.874C9.56239 26.6874 9.48869 26.5083 9.35734 26.3758L7.37391 24.4483Z" fill="white"/>
<path d="M15.7686 14.1633C15.7285 13.9812 15.6177 13.8224 15.4605 13.722C15.3033 13.6216 15.1127 13.5877 14.9306 13.6279C14.7484 13.668 14.5897 13.7788 14.4893 13.936C14.3889 14.0932 14.355 14.2838 14.3951 14.4659L14.9958 17.199C15.0316 17.355 15.1192 17.4942 15.2443 17.594C15.3695 17.6938 15.5248 17.7482 15.6848 17.7484C15.7344 17.7532 15.7843 17.7532 15.8338 17.7484C15.9276 17.7313 16.0169 17.6954 16.0963 17.6427C16.1758 17.5901 16.2437 17.5219 16.2959 17.4422C16.3482 17.3625 16.3837 17.273 16.4003 17.1792C16.4169 17.0853 16.4143 16.9891 16.3925 16.8963L15.7686 14.1633Z" fill="white"/>
<path d="M18.4272 18.81C18.3428 18.7719 18.2518 18.7508 18.1593 18.748C18.0668 18.7452 17.9746 18.7606 17.8881 18.7935C17.8016 18.8264 17.7224 18.876 17.6551 18.9396C17.5878 19.0031 17.5337 19.0793 17.496 19.1638L16.6253 21.1333C16.5867 21.2178 16.5654 21.3092 16.5626 21.4021C16.5598 21.4949 16.5755 21.5875 16.6089 21.6742C16.6423 21.7609 16.6926 21.8401 16.757 21.9071C16.8214 21.9741 16.8985 22.0276 16.9838 22.0644C17.073 22.1048 17.1699 22.1255 17.2678 22.125C17.4035 22.1253 17.5363 22.0863 17.6503 22.0128C17.7643 21.9392 17.8546 21.8343 17.9103 21.7106L18.7857 19.7411C18.8243 19.6566 18.8456 19.5652 18.8484 19.4723C18.8512 19.3794 18.8355 19.2869 18.8021 19.2002C18.7687 19.1135 18.7183 19.0343 18.654 18.9673C18.5896 18.9003 18.5125 18.8468 18.4272 18.81Z" fill="white"/>
<path d="M28.6423 15.0899C28.5647 15.0396 28.4779 15.0052 28.3869 14.9885C28.296 14.9719 28.2027 14.9733 28.1123 14.9928C28.0219 15.0122 27.9362 15.0493 27.8602 15.1019C27.7842 15.1546 27.7192 15.2217 27.6692 15.2994L26.1839 17.6273C26.0841 17.785 26.0507 17.9757 26.0908 18.158C26.1309 18.3402 26.2413 18.4992 26.3981 18.6004C26.5105 18.673 26.6414 18.7118 26.7752 18.7122C26.8939 18.7122 27.0107 18.6823 27.1149 18.6254C27.219 18.5684 27.3072 18.4862 27.3712 18.3863L28.8518 16.0583C28.9019 15.981 28.9363 15.8946 28.9529 15.8041C28.9695 15.7135 28.968 15.6205 28.9485 15.5305C28.929 15.4405 28.892 15.3552 28.8394 15.2796C28.7868 15.204 28.7198 15.1395 28.6423 15.0899Z" fill="white"/>
<path d="M26.7752 10.2104C26.9236 10.2121 27.0687 10.1668 27.1897 10.081C27.3107 9.99514 27.4015 9.87324 27.449 9.7327C27.4966 9.59216 27.4984 9.44018 27.4544 9.29852C27.4103 9.15685 27.3225 9.03277 27.2036 8.94403L25.5647 7.7009C25.4128 7.58791 25.2223 7.53989 25.035 7.56739C24.8477 7.5949 24.679 7.69567 24.566 7.84756C24.453 7.99944 24.405 8.18999 24.4325 8.37728C24.46 8.56457 24.5608 8.73327 24.7127 8.84625L26.3516 10.0894C26.4763 10.1738 26.6247 10.2162 26.7752 10.2104Z" fill="white"/>
<path d="M36.2826 25.3561L33.7684 23.3774C33.6214 23.2625 33.4349 23.2108 33.2498 23.2335C33.0647 23.2562 32.8962 23.3515 32.7813 23.4984C32.6665 23.6454 32.6147 23.8319 32.6374 24.017C32.6601 24.2021 32.7554 24.3706 32.9024 24.4855L35.4119 26.4643C35.4847 26.5214 35.568 26.5637 35.6571 26.5887C35.7462 26.6136 35.8393 26.6208 35.9312 26.6098C36.0231 26.5988 36.1119 26.5698 36.1925 26.5244C36.2732 26.4791 36.3441 26.4183 36.4013 26.3455C36.4585 26.2728 36.5008 26.1895 36.5257 26.1004C36.5507 26.0113 36.5579 25.9181 36.5469 25.8262C36.5358 25.7344 36.5068 25.6456 36.4615 25.5649C36.4161 25.4842 36.3554 25.4133 36.2826 25.3561Z" fill="white"/>
<path d="M35.7425 9.25133C35.6727 9.07722 35.5367 8.93795 35.3642 8.86417C35.1918 8.79039 34.9971 8.78814 34.823 8.8579C34.6488 8.92767 34.5096 9.06375 34.4358 9.23619C34.362 9.40864 34.3598 9.60334 34.4295 9.77745L35.1931 11.7516C35.2417 11.887 35.3307 12.0043 35.4481 12.0876C35.5655 12.1709 35.7057 12.2161 35.8496 12.2172C35.9374 12.2159 36.0242 12.1985 36.1057 12.1659C36.2789 12.0983 36.4183 11.9648 36.4934 11.7947C36.5684 11.6245 36.573 11.4316 36.5061 11.258L35.7425 9.25133Z" fill="white"/>
</svg>
