<svg width="51" height="50" viewBox="0 0 51 50" fill="none" xmlns="http://www.w3.org/2000/svg">
<g clip-path="url(#clip0_7_3145)">
<path d="M20.4769 0H4.95778C3.83218 0.00122149 2.75303 0.448906 1.95711 1.24483C1.16119 2.04075 0.713502 3.1199 0.71228 4.2455V19.76C0.715941 20.884 1.1647 21.9608 1.96036 22.7547C2.75602 23.5487 3.83377 23.9951 4.95778 23.9963H20.4769C21.6025 23.9951 22.6817 23.5474 23.4776 22.7515C24.2735 21.9556 24.7212 20.8764 24.7224 19.7508V4.2455C24.7212 3.1199 24.2735 2.04075 23.4776 1.24483C22.6817 0.448906 21.6025 0.00122149 20.4769 0V0ZM23.3242 19.76C23.3242 20.5156 23.0244 21.2403 22.4905 21.775C21.9567 22.3097 21.2325 22.6107 20.4769 22.6119H4.95778C4.20222 22.6107 3.47802 22.3097 2.94419 21.775C2.41036 21.2403 2.11053 20.5156 2.11053 19.76V4.2455C2.10931 3.8706 2.18203 3.49914 2.32452 3.15237C2.46701 2.8056 2.67647 2.49033 2.94092 2.22459C3.20537 1.95885 3.51963 1.74786 3.8657 1.60369C4.21177 1.45952 4.58288 1.38501 4.95778 1.3844H20.4769C20.8518 1.38501 21.2229 1.45952 21.569 1.60369C21.9151 1.74786 22.2293 1.95885 22.4938 2.22459C22.7582 2.49033 22.9677 2.8056 23.1102 3.15237C23.2527 3.49914 23.3254 3.8706 23.3242 4.2455V19.76Z" fill="white"/>
<path d="M16.5775 7.09735L16.5129 7.05121C15.4362 6.18585 14.0964 5.71376 12.7151 5.71295C11.0758 5.75735 9.51857 6.43974 8.37481 7.6149C7.23105 8.79006 6.59106 10.3652 6.59106 12.0051C6.59106 13.6449 7.23105 15.2201 8.37481 16.3952C9.51857 17.5704 11.0758 18.2528 12.7151 18.2972C14.3694 18.2801 15.9493 17.6072 17.1079 16.4261C18.2664 15.2451 18.9089 13.6525 18.8941 11.9981C18.8955 11.0606 18.6884 10.1345 18.2877 9.28687C17.8871 8.43925 17.3029 7.69136 16.5775 7.09735ZM10.3477 16.0221V7.75725C10.8604 7.45268 11.4281 7.25198 12.0182 7.16657V16.8574C11.4145 16.7663 10.8344 16.5578 10.3108 16.2436C10.3337 16.172 10.3461 16.0974 10.3477 16.0221ZM13.4396 7.16657C14.1683 7.27574 14.8608 7.55562 15.4608 7.98337V16.0221C14.8612 16.4514 14.1686 16.7328 13.4396 16.8435V7.16657ZM7.93426 11.9981C7.93353 10.911 8.29026 9.85381 8.94949 8.98937V14.9884C8.29408 14.129 7.93757 13.0789 7.93426 11.9981ZM16.836 14.4762V9.52467C17.2714 10.278 17.5007 11.1327 17.5007 12.0028C17.5007 12.8728 17.2714 13.7276 16.836 14.4808V14.4762Z" fill="white"/>
<path d="M45.8023 50C46.9279 49.9988 48.007 49.5511 48.8029 48.7552C49.5989 47.9592 50.0466 46.8801 50.0478 45.7545V30.2353C50.0466 29.1097 49.5989 28.0306 48.8029 27.2347C48.007 26.4387 46.9279 25.9911 45.8023 25.9898H30.2877C29.1621 25.9911 28.083 26.4387 27.2871 27.2347C26.4911 28.0306 26.0435 29.1097 26.0422 30.2353V45.7545C26.0435 46.8801 26.4911 47.9592 27.2871 48.7552C28.083 49.5511 29.1621 49.9988 30.2877 50H45.8023ZM27.4359 45.7545V30.2353C27.4371 29.4798 27.7381 28.7556 28.2728 28.2217C28.8075 27.6879 29.5322 27.3881 30.2877 27.3881H45.8023C46.5578 27.3881 47.2825 27.6879 47.8172 28.2217C48.3519 28.7556 48.6529 29.4798 48.6541 30.2353V45.7545C48.6529 46.51 48.3519 47.2342 47.8172 47.7681C47.2825 48.3019 46.5578 48.6017 45.8023 48.6017H30.2877C29.5322 48.6017 28.8075 48.3019 28.2728 47.7681C27.7381 47.2342 27.4371 46.51 27.4359 45.7545Z" fill="white"/>
<path d="M31.866 37.9926C31.866 39.6314 32.517 41.2031 33.6758 42.3619C34.8346 43.5207 36.4062 44.1717 38.045 44.1717C39.6838 44.1717 41.2555 43.5207 42.4143 42.3619C43.5731 41.2031 44.2241 39.6314 44.2241 37.9926C44.2212 37.2134 44.0774 36.441 43.7995 35.713V35.6807C43.3605 34.5129 42.5758 33.5068 41.5501 32.7966C40.5244 32.0864 39.3064 31.7059 38.0589 31.7059C36.8113 31.7059 35.5934 32.0864 34.5676 32.7966C33.5419 33.5068 32.7572 34.5129 32.3182 35.6807V35.7176C32.0303 36.4421 31.877 37.2131 31.866 37.9926ZM42.8304 37.9926C42.8286 38.4404 42.7665 38.8859 42.6458 39.317H33.4442C33.3235 38.8859 33.2614 38.4404 33.2596 37.9926C33.261 37.5415 33.3247 37.0927 33.4488 36.659H42.6412C42.7654 37.0927 42.8291 37.5415 42.8304 37.9926ZM38.045 42.9165C37.2527 42.9127 36.4738 42.711 35.7791 42.3299C35.0845 41.9487 34.496 41.4 34.0672 40.7337H42.0229C41.5943 41.4003 41.0059 41.9492 40.3112 42.3304C39.6165 42.7116 38.8375 42.9131 38.045 42.9165ZM38.045 33.1195C38.834 33.1237 39.6095 33.3236 40.3022 33.7014C40.9948 34.0791 41.5829 34.6228 42.0136 35.2838H34.0764C34.5045 34.6186 35.0914 34.0703 35.7842 33.6884C36.477 33.3066 37.254 33.1031 38.045 33.0965V33.1195Z" fill="white"/>
<path d="M30.7215 23.9963H46.236C47.3616 23.9951 48.4407 23.5474 49.2367 22.7515C50.0326 21.9556 50.4803 20.8764 50.4815 19.7508V4.2455C50.4803 3.1199 50.0326 2.04075 49.2367 1.24483C48.4407 0.448906 47.3616 0.00122149 46.236 0L30.7215 0C29.5958 0.00122149 28.5167 0.448906 27.7208 1.24483C26.9249 2.04075 26.4772 3.1199 26.476 4.2455V19.76C26.4784 20.8844 26.9268 21.9619 27.7227 22.7561C28.5186 23.5503 29.5971 23.9963 30.7215 23.9963ZM27.8696 4.2455C27.8684 3.87021 27.9412 3.49837 28.084 3.1513C28.2268 2.80423 28.4367 2.48875 28.7016 2.22296C28.9665 1.95716 29.2813 1.74626 29.628 1.60237C29.9746 1.45847 30.3462 1.3844 30.7215 1.3844H46.236C46.6105 1.3844 46.9813 1.45817 47.3274 1.60149C47.6734 1.74481 47.9877 1.95487 48.2526 2.2197C48.5174 2.48452 48.7275 2.7989 48.8708 3.14491C49.0141 3.49091 49.0879 3.86176 49.0879 4.23627V19.76C49.0879 20.1345 49.0141 20.5054 48.8708 20.8514C48.7275 21.1974 48.5174 21.5118 48.2526 21.7766C47.9877 22.0414 47.6734 22.2515 47.3274 22.3948C46.9813 22.5381 46.6105 22.6119 46.236 22.6119H30.7215C29.9651 22.6119 29.2397 22.3114 28.7049 21.7766C28.17 21.2418 27.8696 20.5164 27.8696 19.76V4.2455Z" fill="white"/>
<path d="M35.2993 17.8911H41.6583C42.3747 17.8874 43.0607 17.6006 43.5664 17.0931C44.0721 16.5856 44.3567 15.8987 44.3579 15.1823V8.82326C44.3554 8.10558 44.0693 7.418 43.5618 6.91052C43.0543 6.40305 42.3667 6.11687 41.6491 6.11444H35.2993C34.5812 6.11566 33.8929 6.40144 33.3852 6.90918C32.8775 7.41692 32.5917 8.10521 32.5905 8.82326V15.1823C32.5905 15.538 32.6605 15.8902 32.7967 16.2189C32.9328 16.5475 33.1323 16.8462 33.3838 17.0977C33.6354 17.3492 33.934 17.5488 34.2627 17.6849C34.5913 17.821 34.9435 17.8911 35.2993 17.8911ZM42.9735 15.1823C42.9735 15.5303 42.8355 15.8641 42.5899 16.1106C42.3442 16.3571 42.0109 16.4962 41.6629 16.4975H35.2993C35.1245 16.4979 34.9516 16.4618 34.7917 16.3913L42.9135 8.46793C42.9487 8.58315 42.9673 8.70279 42.9689 8.82326L42.9735 15.1823ZM33.9841 8.82326C33.9853 8.47525 34.1244 8.14191 34.3709 7.89626C34.6174 7.65062 34.9513 7.51269 35.2993 7.51269H41.6583C41.729 7.50792 41.7999 7.50792 41.8706 7.51269L33.9887 15.2284C33.9887 15.2284 33.9887 15.1961 33.9887 15.1823L33.9841 8.82326Z" fill="white"/>
<path d="M20.2785 25.7914H4.76393C3.63833 25.7926 2.55918 26.2403 1.76326 27.0362C0.967339 27.8322 0.519654 28.9113 0.518433 30.0369L0.518433 45.5561C0.519654 46.6817 0.967339 47.7608 1.76326 48.5567C2.55918 49.3527 3.63833 49.8003 4.76393 49.8016H20.2785C21.4041 49.8003 22.4832 49.3527 23.2791 48.5567C24.0751 47.7608 24.5227 46.6817 24.524 45.5561V30.0369C24.5227 28.9113 24.0751 27.8322 23.2791 27.0362C22.4832 26.2403 21.4041 25.7926 20.2785 25.7914ZM23.1303 45.5561C23.1291 46.3116 22.8281 47.0358 22.2934 47.5697C21.7587 48.1035 21.034 48.4033 20.2785 48.4033H14.8608L16.8913 45.7176C16.9464 45.6446 16.9867 45.5614 17.0097 45.4728C17.0327 45.3842 17.038 45.292 17.0254 45.2014C17.0127 45.1108 16.9824 45.0235 16.936 44.9446C16.8896 44.8657 16.8282 44.7967 16.7552 44.7416C16.6821 44.6864 16.599 44.6462 16.5104 44.6232C16.4218 44.6002 16.3296 44.5949 16.239 44.6075C16.1483 44.6201 16.0611 44.6505 15.9822 44.6969C15.9033 44.7432 15.8343 44.8047 15.7792 44.8777L13.4395 47.9926C13.3503 48.111 13.3017 48.2551 13.3011 48.4033H6.97898C6.9841 48.3081 6.96908 48.2128 6.93489 48.1237C6.90069 48.0347 6.8481 47.9538 6.78055 47.8865L4.01174 45.1177C3.88079 44.9867 3.70317 44.9131 3.51797 44.9131C3.33277 44.9131 3.15516 44.9867 3.0242 45.1177C2.89324 45.2486 2.81967 45.4262 2.81967 45.6114C2.81967 45.7966 2.89324 45.9743 3.0242 46.1052L5.33154 48.4125H4.76393C4.38826 48.4138 4.01604 48.3407 3.66867 48.1977C3.3213 48.0546 3.00561 47.8443 2.73975 47.5789C2.47389 47.3135 2.2631 46.9981 2.11947 46.651C1.97585 46.3038 1.90223 45.9317 1.90283 45.5561V30.0369C1.90344 29.662 1.97796 29.2909 2.12213 28.9448C2.26629 28.5988 2.47728 28.2845 2.74302 28.0201C3.00876 27.7556 3.32403 27.5461 3.6708 27.4037C4.01757 27.2612 4.38903 27.1884 4.76393 27.1897H20.2785C21.034 27.1897 21.7587 27.4895 22.2934 28.0233C22.8281 28.5572 23.1291 29.2813 23.1303 30.0369V45.5561Z" fill="white"/>
<path d="M15.7008 31.9105H13.3565L15.8484 29.8246C15.9187 29.7659 15.9768 29.6938 16.0192 29.6126C16.0617 29.5314 16.0877 29.4426 16.0959 29.3513C16.104 29.2601 16.0941 29.1681 16.0667 29.0806C16.0393 28.9932 15.9949 28.912 15.9361 28.8417C15.8773 28.7714 15.8053 28.7134 15.7241 28.6709C15.6429 28.6285 15.5541 28.6025 15.4628 28.5943C15.3715 28.5862 15.2796 28.5961 15.1921 28.6235C15.1047 28.6509 15.0235 28.6953 14.9532 28.754L11.9583 31.2598C11.8653 31.3382 11.7943 31.4393 11.7522 31.5534C11.7102 31.6675 11.6985 31.7905 11.7183 31.9105H9.34175C8.6253 31.9117 7.9384 32.1962 7.43092 32.702C6.92345 33.2077 6.63659 33.8936 6.63293 34.6101V40.9737C6.63415 41.6918 6.91994 42.38 7.42768 42.8878C7.93541 43.3955 8.6237 43.6813 9.34175 43.6825H10.8231C10.7564 43.712 10.6942 43.7509 10.6385 43.7979L7.72661 46.4006C7.62085 46.4943 7.54609 46.618 7.51226 46.7552C7.47843 46.8924 7.48712 47.0367 7.53718 47.1689C7.58725 47.301 7.67631 47.4148 7.79256 47.4952C7.90881 47.5756 8.04675 47.6187 8.18808 47.6188C8.35875 47.6174 8.52296 47.5533 8.64955 47.4389L11.5568 44.8408C11.6431 44.7631 11.7088 44.6652 11.7479 44.5559C11.7871 44.4466 11.7985 44.3292 11.7811 44.2144C11.7637 44.0996 11.7181 43.9909 11.6483 43.8981C11.5786 43.8052 11.4869 43.7312 11.3814 43.6825H15.7008C16.0565 43.6825 16.4087 43.6125 16.7374 43.4763C17.066 43.3402 17.3647 43.1407 17.6162 42.8891C17.8677 42.6376 18.0673 42.339 18.2034 42.0103C18.3395 41.6817 18.4096 41.3294 18.4096 40.9737V34.6101C18.4071 33.8932 18.1207 33.2066 17.6129 32.7006C17.1052 32.1946 16.4176 31.9105 15.7008 31.9105ZM17.016 40.9737C17.0147 41.3221 16.8758 41.656 16.6294 41.9023C16.383 42.1487 16.0492 42.2877 15.7008 42.2889H9.34175C8.99374 42.2877 8.6604 42.1486 8.41476 41.9021C8.16911 41.6555 8.03118 41.3217 8.03118 40.9737V34.6101C8.03118 34.2621 8.16911 33.9282 8.41476 33.6817C8.6604 33.4352 8.99374 33.2961 9.34175 33.2949H15.7008C16.0492 33.2961 16.383 33.4351 16.6294 33.6814C16.8758 33.9278 17.0147 34.2616 17.016 34.6101V40.9737Z" fill="white"/>
<path d="M4.02101 31.0752C4.10125 31.0749 4.18086 31.0609 4.25635 31.0337L7.94809 29.7093C8.0409 29.6845 8.12758 29.6408 8.20269 29.5809C8.2778 29.521 8.33972 29.4463 8.38456 29.3613C8.42939 29.2764 8.45618 29.183 8.46324 29.0872C8.4703 28.9914 8.45747 28.8952 8.42557 28.8046C8.39366 28.714 8.34337 28.631 8.27785 28.5607C8.21233 28.4905 8.13299 28.4346 8.04482 28.3964C7.95664 28.3583 7.86154 28.3388 7.76548 28.3392C7.66943 28.3396 7.57449 28.3599 7.48663 28.3987L3.78566 29.7231C3.63161 29.7788 3.50212 29.887 3.41991 30.0287C3.3377 30.1704 3.30804 30.3365 3.33613 30.4979C3.36422 30.6593 3.44827 30.8056 3.57351 30.9112C3.69876 31.0168 3.8572 31.0748 4.02101 31.0752Z" fill="white"/>
<path d="M6.11597 32.7088C6.03002 32.6728 5.93776 32.6542 5.84456 32.6543C5.75136 32.6543 5.65911 32.6729 5.57318 32.709C5.48726 32.7451 5.40938 32.7979 5.34411 32.8645C5.27884 32.931 5.22749 33.0098 5.19304 33.0964L3.74865 36.7236C3.71196 36.8094 3.69291 36.9018 3.69263 36.9952C3.69235 37.0886 3.71083 37.181 3.74699 37.2671C3.78315 37.3532 3.83624 37.4312 3.90312 37.4964C3.96999 37.5615 4.04928 37.6126 4.13628 37.6465C4.21786 37.6815 4.30594 37.6988 4.3947 37.6973C4.53672 37.6959 4.67489 37.6509 4.79046 37.5684C4.90604 37.4858 4.99342 37.3697 5.04075 37.2358L6.51745 33.6133C6.55088 33.5276 6.567 33.4361 6.56489 33.3441C6.56278 33.2521 6.54247 33.1615 6.50515 33.0774C6.46782 32.9933 6.41422 32.9175 6.34742 32.8542C6.28063 32.7909 6.20196 32.7415 6.11597 32.7088Z" fill="white"/>
<path d="M5.10086 40.0323L2.27668 42.7226C2.14266 42.8505 2.06494 43.0264 2.06062 43.2116C2.05629 43.3968 2.12571 43.5762 2.25361 43.7102C2.3815 43.8442 2.5574 43.9219 2.7426 43.9263C2.9278 43.9306 3.10713 43.8612 3.24115 43.7333L6.0561 41.0383C6.1895 40.9104 6.26663 40.7347 6.27053 40.55C6.27442 40.3652 6.20476 40.1865 6.07686 40.0531C5.94897 39.9197 5.77332 39.8425 5.58855 39.8386C5.40378 39.8347 5.22503 39.9044 5.09163 40.0323H5.10086Z" fill="white"/>
<path d="M18.7233 42.3673C18.6583 42.432 18.6067 42.509 18.5715 42.5937C18.5363 42.6785 18.5182 42.7693 18.5182 42.8611C18.5182 42.9528 18.5363 43.0437 18.5715 43.1284C18.6067 43.2132 18.6583 43.2901 18.7233 43.3548L21.4921 46.1237C21.5571 46.1883 21.6341 46.2395 21.7188 46.2743C21.8035 46.3092 21.8943 46.327 21.9859 46.3267C22.1705 46.3253 22.3475 46.2525 22.4797 46.1237C22.5447 46.0589 22.5963 45.982 22.6315 45.8972C22.6667 45.8125 22.6848 45.7216 22.6848 45.6299C22.6848 45.5381 22.6667 45.4473 22.6315 45.3625C22.5963 45.2778 22.5447 45.2009 22.4797 45.1361L19.7109 42.3673C19.6464 42.3017 19.5696 42.2496 19.4848 42.2141C19.4 42.1785 19.309 42.1602 19.2171 42.1602C19.1252 42.1602 19.0342 42.1785 18.9494 42.2141C18.8646 42.2496 18.7878 42.3017 18.7233 42.3673Z" fill="white"/>
<path d="M19.5354 33.0364H19.6785C19.8374 33.0371 19.9917 32.9835 20.1159 32.8845C20.2401 32.7854 20.3268 32.6469 20.3615 32.4919L21.1506 28.671C21.1691 28.5801 21.1695 28.4864 21.1517 28.3954C21.134 28.3043 21.0986 28.2176 21.0474 28.1403C20.9962 28.0629 20.9302 27.9964 20.8533 27.9446C20.7764 27.8927 20.69 27.8565 20.5991 27.838C20.5082 27.8195 20.4146 27.8191 20.3235 27.8368C20.2325 27.8546 20.1458 27.89 20.0684 27.9412C19.9911 27.9924 19.9246 28.0584 19.8727 28.1353C19.8209 28.2122 19.7847 28.2986 19.7662 28.3895L18.9771 32.2104C18.959 32.3014 18.9591 32.395 18.9775 32.4859C18.9958 32.5768 19.032 32.6631 19.0839 32.7399C19.1359 32.8167 19.2025 32.8825 19.28 32.9334C19.3575 32.9843 19.4443 33.0193 19.5354 33.0364Z" fill="white"/>
<path d="M20.3062 34.9285L19.5171 38.7633C19.4989 38.8529 19.4985 38.9453 19.5161 39.0352C19.5336 39.125 19.5686 39.2105 19.6192 39.2867C19.6698 39.363 19.7349 39.4286 19.8108 39.4797C19.8867 39.5308 19.9719 39.5665 20.0616 39.5847C20.2421 39.6215 20.4298 39.5854 20.5837 39.4842C20.7377 39.383 20.8453 39.225 20.883 39.0448L21.6721 35.2192C21.6906 35.1283 21.691 35.0346 21.6733 34.9436C21.6556 34.8525 21.6201 34.7658 21.5689 34.6885C21.5177 34.6112 21.4518 34.5446 21.3749 34.4928C21.2979 34.4409 21.2116 34.4047 21.1207 34.3862C21.0298 34.3678 20.9361 34.3674 20.8451 34.3851C20.754 34.4028 20.6673 34.4382 20.59 34.4895C20.4338 34.5929 20.3251 34.7541 20.2877 34.9377L20.3062 34.9285Z" fill="white"/>
</g>
<defs>
<clipPath id="clip0_7_3145">
<rect width="49.9631" height="50" fill="white" transform="translate(0.518433)"/>
</clipPath>
</defs>
</svg>
