<svg width="30" height="30" viewBox="0 0 30 30" fill="none" xmlns="http://www.w3.org/2000/svg">
<path d="M25.3125 4.6875H4.6875C4.19039 4.68807 3.71381 4.8858 3.3623 5.2373C3.0108 5.58881 2.81307 6.06539 2.8125 6.5625V23.4375C2.81307 23.9346 3.0108 24.4112 3.3623 24.7627C3.71381 25.1142 4.19039 25.3119 4.6875 25.3125H25.3125C25.8096 25.3119 26.2862 25.1142 26.6377 24.7627C26.9892 24.4112 27.1869 23.9346 27.1875 23.4375V6.5625C27.1869 6.06539 26.9892 5.58881 26.6377 5.2373C26.2862 4.8858 25.8096 4.68807 25.3125 4.6875ZM15 15.9375C13.5087 15.9358 12.0789 15.3427 11.0244 14.2881C9.96985 13.2336 9.37667 11.8038 9.375 10.3125C9.375 10.0639 9.47377 9.8254 9.64959 9.64959C9.8254 9.47377 10.0639 9.375 10.3125 9.375C10.5611 9.375 10.7996 9.47377 10.9754 9.64959C11.1512 9.8254 11.25 10.0639 11.25 10.3125C11.25 11.3071 11.6451 12.2609 12.3483 12.9642C13.0516 13.6674 14.0054 14.0625 15 14.0625C15.9946 14.0625 16.9484 13.6674 17.6516 12.9642C18.3549 12.2609 18.75 11.3071 18.75 10.3125C18.75 10.0639 18.8488 9.8254 19.0246 9.64959C19.2004 9.47377 19.4389 9.375 19.6875 9.375C19.9361 9.375 20.1746 9.47377 20.3504 9.64959C20.5262 9.8254 20.625 10.0639 20.625 10.3125C20.6233 11.8038 20.0302 13.2336 18.9756 14.2881C17.9211 15.3427 16.4913 15.9358 15 15.9375Z" fill="white"/>
</svg>
