<svg width="52" height="50" viewBox="0 0 52 50" fill="none" xmlns="http://www.w3.org/2000/svg">
<g clip-path="url(#clip0_7_3165)">
<path d="M24.9223 45.7631V30.28C24.9223 29.1563 24.4759 28.0787 23.6813 27.2841C22.8868 26.4895 21.8091 26.0431 20.6854 26.0431H5.21151C4.08819 26.0443 3.01122 26.4911 2.21691 27.2854C1.42261 28.0797 0.975828 29.1567 0.974609 30.28V45.7631C0.975828 46.8864 1.42261 47.9634 2.21691 48.7577C3.01122 49.552 4.08819 49.9988 5.21151 50H20.6946C21.8163 49.9964 22.8909 49.5485 23.6832 48.7545C24.4756 47.9604 24.9211 46.8848 24.9223 45.7631ZM2.35621 45.7631V30.28C2.3562 29.9055 2.43012 29.5346 2.57373 29.1887C2.71733 28.8428 2.9278 28.5287 3.19306 28.2643C3.45832 27.9999 3.77316 27.7904 4.11953 27.6479C4.46589 27.5054 4.83698 27.4327 5.21151 27.4339H20.6946C21.4494 27.4339 22.1733 27.7338 22.7071 28.2675C23.2408 28.8013 23.5407 29.5252 23.5407 30.28V45.7631C23.5407 46.1369 23.4671 46.507 23.324 46.8523C23.181 47.1976 22.9714 47.5113 22.7071 47.7756C22.4428 48.0399 22.1291 48.2495 21.7838 48.3926C21.4385 48.5356 21.0684 48.6092 20.6946 48.6092H5.21151C4.83698 48.6104 4.46589 48.5377 4.11953 48.3952C3.77316 48.2527 3.45832 48.0433 3.19306 47.7789C2.9278 47.5145 2.71733 47.2003 2.57373 46.8544C2.43012 46.5085 2.3562 46.1376 2.35621 45.7631Z" fill="white"/>
<path d="M16.5407 32.9235L16.4762 32.8728C15.447 32.137 14.2137 31.7409 12.9485 31.7399C11.3126 31.7842 9.75849 32.4652 8.61704 33.638C7.4756 34.8108 6.83691 36.3827 6.83691 38.0193C6.83691 39.6558 7.4756 41.2277 8.61704 42.4005C9.75849 43.5733 11.3126 44.2543 12.9485 44.2986C14.5987 44.2828 16.1752 43.613 17.3321 42.4362C18.4891 41.2594 19.1319 39.6718 19.1196 38.0216C19.1215 37.0287 18.8889 36.0495 18.4408 35.1636C17.9926 34.2777 17.3416 33.5102 16.5407 32.9235ZM10.5998 34.0011C10.5991 33.932 10.5867 33.8634 10.5629 33.7985C11.0834 33.4886 11.6589 33.2822 12.2577 33.1906V42.8295C11.6923 42.7567 11.1456 42.5786 10.6458 42.3045L10.5998 34.0011ZM13.6485 33.1906C14.2712 33.2839 14.8682 33.5033 15.4031 33.8353V42.2078C14.8667 42.5323 14.2696 42.7439 13.6485 42.8295V33.1906ZM8.182 38.0216C8.18214 36.9281 8.54495 35.8656 9.21359 35.0005L9.26425 41.1117C8.56313 40.2344 8.18146 39.1446 8.182 38.0216ZM16.7986 40.9091V35.134C17.4035 35.9753 17.7289 36.9854 17.7289 38.0216C17.7289 39.0578 17.4035 40.0678 16.7986 40.9091Z" fill="white"/>
<path d="M31.3006 23.9477H46.7883C47.9116 23.9465 48.9886 23.4997 49.7829 22.7054C50.5772 21.9111 51.024 20.8341 51.0252 19.7108V4.2369C51.024 3.11358 50.5772 2.03661 49.7829 1.2423C48.9886 0.447997 47.9116 0.00121901 46.7883 0L31.3006 0C30.1773 0.00121901 29.1003 0.447997 28.306 1.2423C27.5117 2.03661 27.0649 3.11358 27.0637 4.2369V19.72C27.0674 20.8417 27.5152 21.9163 28.3093 22.7086C29.1033 23.501 30.1789 23.9465 31.3006 23.9477ZM28.4591 4.2369C28.4579 3.86276 28.5305 3.49205 28.6727 3.14598C28.8149 2.79991 29.0239 2.48528 29.2878 2.22008C29.5518 1.95488 29.8654 1.74432 30.2107 1.60044C30.5561 1.45657 30.9265 1.3822 31.3006 1.3816H46.7883C47.5424 1.38282 48.2651 1.68321 48.7978 2.21682C49.3306 2.75044 49.6298 3.47365 49.6298 4.22769V19.72C49.6298 20.474 49.3306 21.1972 48.7978 21.7309C48.2651 22.2645 47.5424 22.5649 46.7883 22.5661H31.3006C30.5466 22.5649 29.8239 22.2645 29.2911 21.7309C28.7584 21.1972 28.4591 20.474 28.4591 19.72V4.2369Z" fill="white"/>
<path d="M32.3783 36.6676C33.4294 36.6676 34.4569 36.3559 35.3309 35.7719C36.2048 35.188 36.886 34.358 37.2883 33.3868C37.6905 32.4157 37.7958 31.3472 37.5907 30.3162C37.3856 29.2853 36.8795 28.3384 36.1362 27.5951C35.393 26.8519 34.446 26.3457 33.4151 26.1406C32.3842 25.9356 31.3156 26.0408 30.3445 26.4431C29.3734 26.8453 28.5434 27.5265 27.9594 28.4005C27.3754 29.2744 27.0637 30.3019 27.0637 31.3531C27.0649 32.7622 27.6253 34.1133 28.6217 35.1097C29.6181 36.1061 30.9691 36.6664 32.3783 36.6676ZM32.3783 27.4339C33.1547 27.433 33.9139 27.6625 34.5599 28.0933C35.2059 28.5241 35.7095 29.1368 36.007 29.854C36.3046 30.5711 36.3827 31.3605 36.2314 32.122C36.0802 32.8836 35.7064 33.5831 35.1574 34.1322C34.6083 34.6812 33.9088 35.055 33.1472 35.2062C32.3857 35.3575 31.5963 35.2794 30.8792 34.9818C30.162 34.6843 29.5493 34.1807 29.1185 33.5347C28.6877 32.8887 28.4582 32.1295 28.4591 31.3531C28.4604 30.314 28.8737 29.3179 29.6084 28.5832C30.3431 27.8484 31.3392 27.4351 32.3783 27.4339Z" fill="white"/>
<path d="M32.8744 33.4667C34.0378 33.1921 34.7584 32.0263 34.4838 30.8629C34.2092 29.6994 33.0434 28.9789 31.8799 29.2535C30.7165 29.5281 29.9959 30.6938 30.2705 31.8573C30.5451 33.0207 31.7109 33.7413 32.8744 33.4667Z" fill="white"/>
<path d="M45.1857 39.3755C44.1336 39.3746 43.1049 39.686 42.2299 40.2702C41.355 40.8545 40.6731 41.6853 40.2707 42.6574C39.8683 43.6295 39.7634 44.6991 39.9695 45.7308C40.1755 46.7626 40.6832 47.7099 41.4281 48.4529C42.173 49.1959 43.1217 49.701 44.1539 49.9044C45.1862 50.1077 46.2556 50.0001 47.2266 49.5952C48.1977 49.1903 49.0267 48.5062 49.6086 47.6297C50.1906 46.7532 50.4993 45.7237 50.4956 44.6716C50.4896 43.2665 49.9277 41.9209 48.9328 40.9286C47.938 39.9363 46.5908 39.3779 45.1857 39.3755ZM45.1857 48.5862C44.4091 48.5871 43.6496 48.3575 43.0036 47.9265C42.3575 47.4955 41.8539 46.8825 41.5565 46.165C41.2591 45.4476 41.1812 44.6581 41.3329 43.8964C41.4845 43.1347 41.8588 42.4351 42.4082 41.8863C42.9577 41.3375 43.6577 40.964 44.4196 40.8133C45.1814 40.6626 45.9709 40.7413 46.688 41.0396C47.405 41.3378 48.0175 41.8422 48.4477 42.4887C48.878 43.1353 49.1067 43.895 49.1048 44.6716C49.1066 45.1877 49.0066 45.699 48.8106 46.1764C48.6145 46.6537 48.3262 47.0877 47.9621 47.4534C47.5981 47.8192 47.1655 48.1096 46.689 48.3079C46.2126 48.5062 45.7017 48.6086 45.1857 48.6092V48.5862Z" fill="white"/>
<path d="M45.6099 46.9481C46.7734 46.6735 47.494 45.5077 47.2194 44.3443C46.9448 43.1808 45.779 42.4602 44.6155 42.7348C43.4521 43.0094 42.7315 44.1752 43.0061 45.3387C43.2807 46.5021 44.4465 47.2227 45.6099 46.9481Z" fill="white"/>
<path d="M50.4957 28.1892C50.4957 27.9074 50.4402 27.6283 50.3323 27.3679C50.2245 27.1076 50.0664 26.871 49.8671 26.6717C49.6678 26.4724 49.4312 26.3143 49.1709 26.2065C48.9105 26.0986 48.6314 26.0431 48.3496 26.0431H42.0127C41.4435 26.0431 40.8976 26.2692 40.4952 26.6717C40.0927 27.0742 39.8666 27.62 39.8666 28.1892V34.5399C39.8678 35.1083 40.0944 35.653 40.4968 36.0545C40.8991 36.456 41.4443 36.6814 42.0127 36.6814H48.3496C48.918 36.6814 49.4631 36.456 49.8655 36.0545C50.2678 35.653 50.4944 35.1083 50.4957 34.5399V28.1892ZM49.1141 34.5261C49.1129 34.7256 49.0327 34.9166 48.8912 35.0572C48.7497 35.1979 48.5583 35.2768 48.3588 35.2768H42.0127C41.8159 35.2768 41.6271 35.1996 41.4867 35.0618C41.3463 34.924 41.2656 34.7366 41.262 34.5399V28.1892C41.2614 28.0902 41.2804 27.9921 41.3178 27.9005C41.3553 27.8089 41.4105 27.7256 41.4802 27.6554C41.55 27.5852 41.6329 27.5295 41.7243 27.4915C41.8157 27.4535 41.9137 27.4339 42.0127 27.4339H48.3496C48.5499 27.4339 48.742 27.5135 48.8836 27.6551C49.0253 27.7968 49.1049 27.9889 49.1049 28.1892L49.1141 34.5261Z" fill="white"/>
<path d="M45.8626 29.253H44.4995C43.7135 29.253 43.0764 29.8901 43.0764 30.6761V32.0392C43.0764 32.8252 43.7135 33.4623 44.4995 33.4623H45.8626C46.6486 33.4623 47.2857 32.8252 47.2857 32.0392V30.6761C47.2857 29.8901 46.6486 29.253 45.8626 29.253Z" fill="white"/>
<path d="M29.2098 50H35.5467C36.1159 50 36.6618 49.7739 37.0642 49.3714C37.4667 48.969 37.6928 48.4231 37.6928 47.8539V41.517C37.6916 40.9486 37.4649 40.4039 37.0626 40.0025C36.6603 39.601 36.1151 39.3755 35.5467 39.3755H29.2098C28.6414 39.3755 28.0963 39.601 27.6939 40.0025C27.2916 40.4039 27.0649 40.9486 27.0637 41.517V47.8539C27.0637 48.4231 27.2898 48.969 27.6923 49.3714C28.0948 49.7739 28.6406 50 29.2098 50ZM28.4591 41.517C28.4591 41.3179 28.5382 41.127 28.679 40.9862C28.8198 40.8454 29.0107 40.7663 29.2098 40.7663H35.5467C35.7462 40.7663 35.9377 40.8453 36.0792 40.9859C36.2207 41.1266 36.3008 41.3175 36.302 41.517V47.8539C36.3008 48.0539 36.2208 48.2453 36.0794 48.3866C35.9381 48.528 35.7467 48.608 35.5467 48.6092H29.2098C29.0103 48.608 28.8194 48.5279 28.6787 48.3864C28.5381 48.2448 28.4591 48.0534 28.4591 47.8539V41.517Z" fill="white"/>
<path d="M33.0323 42.5854H31.6691C30.8832 42.5854 30.2461 43.2225 30.2461 44.0085V45.3716C30.2461 46.1576 30.8832 46.7947 31.6691 46.7947H33.0323C33.8182 46.7947 34.4554 46.1576 34.4554 45.3716V44.0085C34.4554 43.2225 33.8182 42.5854 33.0323 42.5854Z" fill="white"/>
<path d="M19.6216 10.6291C20.6737 10.6337 21.7034 10.3258 22.5804 9.74465C23.4574 9.16346 24.1422 8.33505 24.548 7.36435C24.9538 6.39366 25.0623 5.32436 24.8598 4.29193C24.6574 3.2595 24.1531 2.31038 23.4107 1.56482C22.6684 0.819267 21.7215 0.310815 20.6899 0.103878C19.6584 -0.103058 18.5886 0.00083482 17.6162 0.402395C16.6437 0.803954 15.8124 1.48511 15.2274 2.35958C14.6424 3.23404 14.3301 4.26246 14.3301 5.31456C14.3313 6.71971 14.8884 8.06731 15.8799 9.06306C16.8713 10.0588 18.2165 10.6218 19.6216 10.6291ZM19.6216 1.38161C20.3978 1.37888 21.1574 1.60645 21.8043 2.03552C22.4512 2.4646 22.9562 3.0759 23.2556 3.79208C23.555 4.50827 23.6352 5.29716 23.4861 6.05894C23.337 6.82073 22.9653 7.52117 22.418 8.07166C21.8708 8.62216 21.1725 8.99795 20.4116 9.15151C19.6507 9.30507 18.8614 9.2295 18.1434 8.93434C17.4255 8.63918 16.8113 8.13772 16.3784 7.49338C15.9455 6.84904 15.7135 6.09079 15.7117 5.31456C15.7092 4.27471 16.1196 3.27642 16.8528 2.53898C17.5859 1.80154 18.5818 1.38527 19.6216 1.38161Z" fill="white"/>
<path d="M21.1524 6.84474C21.9977 5.99945 21.9977 4.62897 21.1524 3.78368C20.3071 2.93839 18.9366 2.93838 18.0913 3.78367C17.246 4.62897 17.246 5.99945 18.0913 6.84474C18.9366 7.69003 20.3071 7.69003 21.1524 6.84474Z" fill="white"/>
<path d="M6.28915 23.524C7.34027 23.524 8.36778 23.2123 9.24176 22.6283C10.1157 22.0444 10.7969 21.2143 11.1992 20.2432C11.6014 19.2721 11.7066 18.2035 11.5016 17.1726C11.2965 16.1417 10.7904 15.1947 10.0471 14.4515C9.30385 13.7082 8.35689 13.2021 7.32597 12.997C6.29505 12.792 5.22647 12.8972 4.25537 13.2994C3.28426 13.7017 2.45424 14.3829 1.87027 15.2568C1.2863 16.1308 0.974609 17.1583 0.974609 18.2094C0.975829 19.6186 1.53614 20.9696 2.53255 21.966C3.52896 22.9625 4.88002 23.5228 6.28915 23.524ZM6.28915 14.3133C7.06597 14.3152 7.82476 14.5476 8.46939 14.9811C9.11401 15.4145 9.61546 16.0296 9.9102 16.7484C10.2049 17.4671 10.2797 18.2571 10.125 19.0184C9.97031 19.7797 9.59313 20.4779 9.04126 21.0246C8.48938 21.5713 7.78765 21.9419 7.02496 22.0894C6.26228 22.2369 5.47296 22.1547 4.75703 21.8532C4.0411 21.5518 3.43077 21.0445 3.00337 20.3959C2.57597 19.7472 2.35074 18.9862 2.35621 18.2094C2.35499 17.6926 2.45589 17.1806 2.65311 16.7029C2.85033 16.2252 3.13998 15.7912 3.50543 15.4257C3.87088 15.0603 4.30493 14.7706 4.78264 14.5734C5.26036 14.3762 5.77233 14.2753 6.28915 14.2765V14.3133Z" fill="white"/>
<path d="M6.63473 20.2522C7.79818 19.9776 8.51874 18.8119 8.24414 17.6484C7.96954 16.4849 6.80377 15.7644 5.64031 16.039C4.47686 16.3136 3.7563 17.4794 4.0309 18.6428C4.3055 19.8063 5.47127 20.5268 6.63473 20.2522Z" fill="white"/>
<path d="M16.4531 23.524H22.7901C23.3568 23.5203 23.8992 23.2926 24.2986 22.8905C24.6981 22.4885 24.9223 21.9447 24.9223 21.3779V15.041C24.9223 14.4742 24.6981 13.9304 24.2986 13.5283C23.8992 13.1263 23.3568 12.8985 22.7901 12.8949H16.4531C15.888 12.901 15.348 13.1297 14.9505 13.5316C14.553 13.9334 14.33 14.4758 14.3301 15.041V21.3779C14.33 21.9431 14.553 22.4855 14.9505 22.8873C15.348 23.2891 15.888 23.5179 16.4531 23.524ZM15.7117 15.041C15.7098 14.942 15.7276 14.8437 15.7639 14.7516C15.8003 14.6595 15.8544 14.5755 15.9234 14.5045C15.9923 14.4334 16.0746 14.3767 16.1655 14.3376C16.2564 14.2985 16.3542 14.2777 16.4531 14.2765H22.7901C22.8898 14.2765 22.9886 14.2963 23.0806 14.3349C23.1725 14.3735 23.2559 14.43 23.3258 14.5012C23.3957 14.5724 23.4507 14.6568 23.4876 14.7495C23.5245 14.8421 23.5426 14.9412 23.5407 15.041V21.3779C23.5413 21.4769 23.5224 21.575 23.4849 21.6666C23.4475 21.7582 23.3923 21.8415 23.3225 21.9117C23.2527 21.9819 23.1698 22.0376 23.0784 22.0756C22.987 22.1136 22.889 22.1332 22.7901 22.1332H16.4531C16.2548 22.1307 16.0656 22.05 15.9266 21.9084C15.7877 21.7669 15.7104 21.5762 15.7117 21.3779V15.041Z" fill="white"/>
<path d="M20.3032 16.1094H18.94C18.1541 16.1094 17.517 16.7466 17.517 17.5325V18.8957C17.517 19.6816 18.1541 20.3187 18.94 20.3187H20.3032C21.0891 20.3187 21.7262 19.6816 21.7262 18.8957V17.5325C21.7262 16.7466 21.0891 16.1094 20.3032 16.1094Z" fill="white"/>
<path d="M3.12069 10.6291H9.45762C10.0268 10.6291 10.5727 10.403 10.9751 10.0005C11.3776 9.59805 11.6037 9.05218 11.6037 8.48301V2.14608C11.6037 1.5769 11.3776 1.03104 10.9751 0.628573C10.5727 0.226104 10.0268 0 9.45762 0L3.12069 0C2.55151 0 2.00565 0.226104 1.60318 0.628573C1.20071 1.03104 0.974609 1.5769 0.974609 2.14608L0.974609 8.48301C0.974609 9.05218 1.20071 9.59805 1.60318 10.0005C2.00565 10.403 2.55151 10.6291 3.12069 10.6291ZM2.35621 2.14608C2.3556 2.04552 2.37495 1.94583 2.41315 1.8528C2.45136 1.75978 2.50764 1.67526 2.57876 1.60415C2.64987 1.53304 2.73439 1.47675 2.82741 1.43854C2.92044 1.40034 3.02013 1.38099 3.12069 1.3816H9.45762C9.65713 1.38281 9.84805 1.46292 9.9887 1.60443C10.1293 1.74594 10.2083 1.93735 10.2083 2.13687V8.48301C10.2083 8.6821 10.1292 8.87303 9.98842 9.01381C9.84764 9.15459 9.65671 9.23368 9.45762 9.23368H3.12069C3.02112 9.23489 2.92229 9.21641 2.82989 9.17928C2.7375 9.14216 2.65335 9.08713 2.5823 9.01736C2.51125 8.9476 2.45469 8.86447 2.41589 8.77276C2.37709 8.68106 2.35681 8.58258 2.35621 8.48301V2.14608Z" fill="white"/>
<path d="M6.97079 3.18228H5.60762C4.82169 3.18228 4.18457 3.8194 4.18457 4.60533V5.9685C4.18457 6.75443 4.82169 7.39155 5.60762 7.39155H6.97079C7.75672 7.39155 8.39384 6.75443 8.39384 5.9685V4.60533C8.39384 3.8194 7.75672 3.18228 6.97079 3.18228Z" fill="white"/>
<path d="M33.9579 17.0397C34.2087 17.291 34.5066 17.4902 34.8346 17.6262C35.1626 17.7621 35.5141 17.832 35.8691 17.8318H42.2153C42.9322 17.8318 43.6198 17.547 44.1268 17.04C44.6338 16.5331 44.9186 15.8455 44.9186 15.1285V8.80538C44.9179 8.1375 44.6683 7.49385 44.2186 7.00009C43.967 6.72054 43.6595 6.49696 43.3159 6.34384C42.9724 6.19073 42.6006 6.11149 42.2245 6.11127H35.8737C35.1571 6.11248 34.4702 6.39769 33.9635 6.9044C33.4568 7.41111 33.1716 8.098 33.1704 8.81459V15.1515C33.1732 15.8593 33.4544 16.5376 33.9533 17.0397H33.9579ZM43.5278 15.1515C43.5266 15.4992 43.3879 15.8324 43.142 16.0783C42.8961 16.3241 42.563 16.4628 42.2153 16.464H35.8737C35.7793 16.4627 35.6851 16.4519 35.5928 16.4318L43.514 8.65801C43.514 8.70867 43.514 8.75472 43.514 8.80538L43.5278 15.1515ZM34.5612 8.80538C34.5624 8.45808 34.7013 8.12542 34.9473 7.88027C35.1933 7.63512 35.5264 7.49747 35.8737 7.49747H42.2153C42.3581 7.49831 42.4998 7.52322 42.6343 7.57115L34.5935 15.4555C34.5696 15.3559 34.5572 15.2539 34.5566 15.1515L34.5612 8.80538Z" fill="white"/>
</g>
<defs>
<clipPath id="clip0_7_3165">
<rect width="50.0507" height="50" fill="white" transform="translate(0.974609)"/>
</clipPath>
</defs>
</svg>
