<svg width="40" height="50" viewBox="0 0 40 50" fill="none" xmlns="http://www.w3.org/2000/svg">
<path d="M38.9262 15.1917H33.8624C33.7089 15.1927 33.56 15.2442 33.4386 15.3383C33.3173 15.4324 33.2304 15.5638 33.1912 15.7123L32.0543 20.1779L34.5336 9.13259C34.558 9.03155 34.5587 8.92625 34.5358 8.82488C34.5128 8.72351 34.4668 8.62881 34.4012 8.54813C34.3359 8.46839 34.2536 8.40411 34.1605 8.3599C34.0673 8.31569 33.9655 8.29265 33.8624 8.29244H29.9128L30.8991 2.01412C30.9145 1.91523 30.9081 1.81418 30.8805 1.71799C30.8529 1.62179 30.8047 1.53275 30.7393 1.45706C30.6751 1.38039 30.5947 1.31892 30.5039 1.27707C30.4131 1.23522 30.3141 1.21404 30.2142 1.21506H26.7714C26.615 1.21542 26.4633 1.26895 26.3414 1.36686C26.2194 1.46477 26.1343 1.60123 26.1002 1.75386L24.2737 9.8175L23.8171 3.67616C23.8055 3.50254 23.7283 3.33984 23.6011 3.22112C23.4739 3.10239 23.3062 3.03653 23.1322 3.03692H19.6849C19.59 3.03762 19.4963 3.05738 19.4092 3.09503C19.3221 3.13268 19.2435 3.18745 19.178 3.25609C19.1137 3.32491 19.0644 3.40625 19.0329 3.49503C19.0015 3.58381 18.9887 3.67811 18.9954 3.77205L19.8036 16.7214L17.3105 7.99564C17.2851 7.90353 17.2407 7.81776 17.1801 7.74384C17.1196 7.66992 17.0442 7.60949 16.9589 7.56643C16.8735 7.52475 16.7805 7.50083 16.6855 7.49613C16.5905 7.49142 16.4956 7.50602 16.4064 7.53904L13.1417 8.75361C12.9882 8.812 12.8603 8.92297 12.7809 9.06677C12.7014 9.21058 12.6756 9.3779 12.7079 9.53897L13.539 13.5754H13.4202L13.1189 13.6484L9.20121 0.493627C9.17664 0.406006 9.13439 0.324343 9.07707 0.253668C9.01974 0.182993 8.94856 0.124803 8.86789 0.0826823C8.70676 -0.00356183 8.51826 -0.0232322 8.3428 0.0278897L4.29271 1.24246C4.12929 1.29708 3.99203 1.41054 3.90764 1.56076C3.82324 1.71099 3.79775 1.88723 3.83611 2.05521L5.70362 10.4202L5.12373 9.13259C5.05317 8.97322 4.92524 8.84624 4.76535 8.77687C4.60546 8.7075 4.42533 8.70083 4.26075 8.75817L0.813383 9.96361C0.725755 9.99418 0.645309 10.0424 0.576992 10.1052C0.508676 10.168 0.453935 10.2441 0.416137 10.3289C0.379968 10.4141 0.361328 10.5057 0.361328 10.5983C0.361328 10.6909 0.379968 10.7825 0.416137 10.8677L5.70819 24.511H4.48905C4.38993 24.5105 4.29188 24.5315 4.20167 24.5726C4.11146 24.6137 4.03124 24.6739 3.96656 24.749C3.90187 24.8241 3.85426 24.9123 3.827 25.0076C3.79975 25.1029 3.79351 25.203 3.80871 25.301L7.46155 49.4097C7.47876 49.5204 7.52267 49.6252 7.5895 49.7151C7.65633 49.805 7.74406 49.8773 7.8451 49.9257C7.93928 49.9704 8.04218 49.9938 8.14646 49.9941C8.26792 49.993 8.38719 49.9616 8.49347 49.9028C8.61676 49.8298 21.251 42.693 33.52 49.9028C33.6181 49.9613 33.7291 49.9944 33.8432 49.9994C33.9573 50.0043 34.0708 49.9808 34.1736 49.931C34.2763 49.8812 34.3651 49.8067 34.4319 49.7141C34.4988 49.6215 34.5416 49.5138 34.5565 49.4006L37.7984 25.3147L39.6248 16.0136C39.6452 15.9137 39.643 15.8105 39.6184 15.7116C39.5939 15.6126 39.5475 15.5204 39.4828 15.4416C39.418 15.3629 39.3365 15.2996 39.2441 15.2563C39.1518 15.2131 39.051 15.191 38.949 15.1917H38.9262ZM32.9903 9.68508L29.6571 24.511H27.3741L29.6936 9.68508H32.9903ZM27.3239 2.59401H29.4105L25.9814 24.511H25.3878L24.6345 14.516L27.3239 2.59401ZM20.4154 4.42043H22.4884L24.0043 24.511H22.0272L21.3149 22.0134C21.4355 21.8749 21.4962 21.6943 21.4839 21.5111L20.4154 4.42043ZM16.1918 9.09149L20.5889 24.511H17.2101L14.1965 9.84033L16.1918 9.09149ZM15.7352 24.511H11.8997L9.42951 15.8721C10.5482 15.694 12.1965 15.315 13.1189 15.0913L15.7352 24.511ZM8.07796 1.54838L11.7719 13.9863C10.7043 14.2581 9.61975 14.4579 8.52544 14.5844C8.35526 14.5879 8.19248 14.6547 8.06883 14.7717L5.30637 2.38397L8.07796 1.54838ZM1.95033 11.0275L4.11464 10.265L10.3245 24.511H7.20585L1.95033 11.0275ZM33.3145 48.2043C22.566 42.4693 11.781 46.7705 8.65785 48.2545L5.27441 25.8808H36.3144L33.3145 48.2043ZM36.5107 24.511H32.3739L34.3967 16.5707H38.086L36.5107 24.511Z" fill="white"/>
<path d="M23.1871 27.6433H7.25612C7.15953 27.6322 7.06168 27.6415 6.96898 27.6709C6.87628 27.7002 6.79082 27.7488 6.71823 27.8135C6.64564 27.8781 6.58755 27.9574 6.54777 28.0462C6.50799 28.1349 6.48743 28.231 6.48743 28.3282C6.48743 28.4255 6.50799 28.5216 6.54777 28.6103C6.58755 28.699 6.64564 28.7783 6.71823 28.843C6.79082 28.9077 6.87628 28.9563 6.96898 28.9856C7.06168 29.0149 7.15953 29.0243 7.25612 29.0131H23.1871C23.2836 29.0243 23.3815 29.0149 23.4742 28.9856C23.5669 28.9563 23.6524 28.9077 23.7249 28.843C23.7975 28.7783 23.8556 28.699 23.8954 28.6103C23.9352 28.5216 23.9557 28.4255 23.9557 28.3282C23.9557 28.231 23.9352 28.1349 23.8954 28.0462C23.8556 27.9574 23.7975 27.8781 23.7249 27.8135C23.6524 27.7488 23.5669 27.7002 23.4742 27.6709C23.3815 27.6415 23.2836 27.6322 23.1871 27.6433Z" fill="white"/>
<path d="M29.8489 27.6433H26.1184C25.9504 27.6628 25.7954 27.7433 25.6829 27.8696C25.5704 27.9959 25.5082 28.1591 25.5082 28.3282C25.5082 28.4974 25.5704 28.6606 25.6829 28.7869C25.7954 28.9132 25.9504 28.9937 26.1184 29.0132H29.8489C30.0169 28.9937 30.1719 28.9132 30.2845 28.7869C30.397 28.6606 30.4592 28.4974 30.4592 28.3282C30.4592 28.1591 30.397 27.9959 30.2845 27.8696C30.1719 27.7433 30.0169 27.6628 29.8489 27.6433Z" fill="white"/>
</svg>
