<svg width="32" height="50" viewBox="0 0 32 50" fill="none" xmlns="http://www.w3.org/2000/svg">
<path d="M30.8361 6.26474e-06H1.1679C1.0726 -0.000118559 0.978362 0.0198981 0.891347 0.0587439C0.804333 0.0975898 0.72651 0.154388 0.662983 0.225414C0.597474 0.29552 0.547857 0.37893 0.517515 0.469955C0.487174 0.560981 0.476821 0.657479 0.487164 0.752869L5.5363 49.3914C5.5541 49.5584 5.63299 49.7129 5.75782 49.8252C5.88264 49.9376 6.04459 49.9998 6.21253 50H25.7915C25.9594 49.9998 26.1213 49.9376 26.2462 49.8252C26.371 49.7129 26.4499 49.5584 26.4677 49.3914L31.5123 0.752869C31.5233 0.657808 31.5136 0.561507 31.4841 0.470499C31.4545 0.379492 31.4057 0.295906 31.341 0.225414C31.2777 0.154163 31.1999 0.0972112 31.1128 0.0583466C31.0258 0.019482 30.9314 -0.000405466 30.8361 6.26474e-06ZM25.1738 48.6385H6.83014L3.34985 15.1204C5.89696 12.8302 9.02111 12.2351 12.6592 13.3622C14.2108 13.8568 15.6846 14.5687 17.0366 15.4765V20.3589C17.0366 20.5394 17.1083 20.7125 17.236 20.8402C17.3637 20.9679 17.5368 21.0396 17.7173 21.0396H25.0837C25.1732 21.0402 25.262 21.023 25.3449 20.989C25.4278 20.955 25.503 20.9049 25.5664 20.8415C25.6297 20.7782 25.6798 20.7029 25.7138 20.6201C25.7478 20.5372 25.765 20.4484 25.7644 20.3589V17.397C26.7578 17.1519 27.6996 16.7321 28.5459 16.1572L25.1738 48.6385ZM24.4029 16.27C22.3447 16.4292 20.2881 15.9422 18.5198 14.8769L18.4026 14.7913V13.6733H24.4029V16.27ZM18.3981 16.3466C20.0167 17.1723 21.8018 17.6193 23.6185 17.654C23.8755 17.654 24.137 17.654 24.4029 17.6224V19.6781H18.3981V16.3466ZM28.7398 14.2728C27.8881 15.0606 26.8717 15.6488 25.7644 15.995V12.9925C25.765 12.903 25.7478 12.8142 25.7138 12.7313C25.6798 12.6484 25.6297 12.5732 25.5664 12.5098C25.503 12.4465 25.4278 12.3964 25.3449 12.3624C25.262 12.3284 25.1732 12.3112 25.0837 12.3118H17.7173C17.5368 12.3118 17.3637 12.3835 17.236 12.5112C17.1083 12.6388 17.0366 12.812 17.0366 12.9925V13.8716C14.3002 12.2442 8.33136 9.59788 3.19206 13.4929L1.92527 1.35245H30.0787L28.7398 14.2728Z" fill="white"/>
<path d="M14.0116 24.042V16.6802C14.0116 16.4996 13.9399 16.3265 13.8123 16.1988C13.6846 16.0712 13.5115 15.9995 13.3309 15.9995H5.98261C5.80243 16.0006 5.62997 16.0727 5.50257 16.2001C5.37516 16.3275 5.30306 16.5 5.30188 16.6802V24.042C5.30188 24.2225 5.3736 24.3957 5.50126 24.5234C5.62892 24.651 5.80207 24.7227 5.98261 24.7227H13.3489C13.5267 24.7192 13.6959 24.6458 13.82 24.5183C13.944 24.3909 14.0129 24.2198 14.0116 24.042ZM12.6592 23.3613H6.66334V17.3564H12.6592V23.3613Z" fill="white"/>
<path d="M13.3535 25.8227V33.1891C13.3547 33.3693 13.4268 33.5417 13.5542 33.6691C13.6816 33.7965 13.8541 33.8686 14.0342 33.8698H21.4006C21.5811 33.8698 21.7543 33.7981 21.8819 33.6704C22.0096 33.5428 22.0813 33.3696 22.0813 33.1891V25.8227C22.0819 25.7332 22.0647 25.6444 22.0307 25.5615C21.9967 25.4787 21.9466 25.4034 21.8833 25.3401C21.8199 25.2767 21.7447 25.2266 21.6618 25.1926C21.5789 25.1586 21.4901 25.1414 21.4006 25.142H14.0342C13.8537 25.142 13.6806 25.2137 13.5529 25.3414C13.4252 25.4691 13.3535 25.6422 13.3535 25.8227ZM14.706 26.5035H20.7198V32.5083H14.715L14.706 26.5035Z" fill="white"/>
<path d="M23.3616 45.8525H8.54776C8.4524 45.8415 8.35579 45.8507 8.26426 45.8797C8.17274 45.9086 8.08837 45.9566 8.0167 46.0205C7.94502 46.0843 7.88767 46.1626 7.84839 46.2502C7.80912 46.3378 7.78882 46.4327 7.78882 46.5287C7.78882 46.6247 7.80912 46.7196 7.84839 46.8072C7.88767 46.8948 7.94502 46.9731 8.0167 47.037C8.08837 47.1008 8.17274 47.1488 8.26426 47.1778C8.35579 47.2067 8.4524 47.216 8.54776 47.2049H23.3616C23.5275 47.1858 23.6805 47.1063 23.7916 46.9816C23.9027 46.8569 23.9641 46.6957 23.9641 46.5287C23.9641 46.3617 23.9027 46.2006 23.7916 46.0759C23.6805 45.9512 23.5275 45.8717 23.3616 45.8525Z" fill="white"/>
</svg>
